<svg xmlns="http://www.w3.org/2000/svg" width="38" height="38" viewBox="0 0 706 706" version="1.1"><path d="M 346.646 9.452 L 344 11.905 344 40 L 344 68.095 346.750 70.645 C 350.118 73.768, 355.839 73.439, 359.598 69.908 L 362 67.651 362 40.249 L 362 12.846 359.077 9.923 C 355.301 6.147, 350.412 5.962, 346.646 9.452 M 155.817 72.718 C 147.399 77.939, 149.010 81.373, 168.817 100.435 C 177.992 109.265, 188.412 119.570, 191.971 123.334 C 201.348 133.250, 206.046 135.112, 211.288 130.988 C 218.633 125.210, 216.479 121.456, 192.781 98.732 C 161.736 68.964, 161.798 69.007, 155.817 72.718 M 539 73.118 C 526.058 80.921, 490 117.441, 490 122.746 C 490 136.129, 498.178 135.083, 514 119.676 C 520.325 113.516, 530.900 103.595, 537.500 97.628 C 544.100 91.661, 550.285 85.591, 551.245 84.139 C 557.026 75.394, 548.281 67.522, 539 73.118 M 313.391 151.058 C 308.036 152.087, 283.554 163.509, 278.838 167.179 C 276.824 168.746, 273.474 170.739, 271.394 171.609 C 260.834 176.021, 247.304 188.537, 243.021 197.854 L 240.560 203.209 244.393 206.721 C 250.563 212.375, 253.871 211.354, 265.349 200.249 C 270.423 195.341, 275.907 190.464, 277.536 189.413 C 279.166 188.361, 283.874 185.072, 287.999 182.103 C 297.172 175.504, 307.077 170.841, 316.953 168.472 C 324.411 166.684, 329 163.689, 329 160.611 C 329 153.519, 322.211 149.364, 313.391 151.058 M 223.239 229.381 C 220.302 232.726, 217.877 238.796, 216.468 246.329 C 215.107 253.609, 225.314 258.777, 230.604 253.487 C 233.608 250.483, 238.868 239.591, 239.654 234.747 C 240.878 227.202, 228.659 223.207, 223.239 229.381 M 196 228 C 196 228.733, 196.300 229.033, 196.667 228.667 C 197.033 228.300, 197.033 227.700, 196.667 227.333 C 196.300 226.967, 196 227.267, 196 228 M 195 231 C 195 231.733, 195.300 232.033, 195.667 231.667 C 196.033 231.300, 196.033 230.700, 195.667 230.333 C 195.300 229.967, 195 230.267, 195 231 M 194 234 C 194 234.733, 194.300 235.033, 194.667 234.667 C 195.033 234.300, 195.033 233.700, 194.667 233.333 C 194.300 232.967, 194 233.267, 194 234 M 193 238 C 193 238.733, 193.300 239.033, 193.667 238.667 C 194.033 238.300, 194.033 237.700, 193.667 237.333 C 193.300 236.967, 193 237.267, 193 238 M 192 241.500 C 192 241.775, 192.225 242, 192.500 242 C 192.775 242, 193 241.775, 193 241.500 C 193 241.225, 192.775 241, 192.500 241 C 192.225 241, 192 241.225, 192 241.500 M 192 243.500 C 192 243.775, 192.225 244, 192.500 244 C 192.775 244, 193 243.775, 193 243.500 C 193 243.225, 192.775 243, 192.500 243 C 192.225 243, 192 243.225, 192 243.500 M 83.326 252.872 C 70.744 253.733, 65.651 258.557, 69.489 265.979 C 72.033 270.899, 72.786 271, 106.747 271 L 138.626 271 141.313 268.195 C 150.730 258.366, 143.272 253.003, 120.173 252.991 C 110.453 252.987, 100.250 252.817, 97.500 252.613 C 94.750 252.410, 88.372 252.527, 83.326 252.872 M 572.646 252.917 C 561.685 254.084, 558.100 265.237, 567.131 270.070 C 571.142 272.217, 632.509 270.174, 635.536 267.793 C 639.201 264.910, 638.985 258.831, 635.077 254.923 L 632.154 252 605.327 252.147 C 590.572 252.228, 575.866 252.575, 572.646 252.917 M 212.457 274.452 C 207.288 279.621, 211.777 289, 219.421 289 C 230.849 289, 230.761 273.851, 219.324 272.317 C 215.725 271.834, 214.782 272.127, 212.457 274.452 M 415 294.500 C 415 294.775, 415.225 295, 415.500 295 C 415.775 295, 416 294.775, 416 294.500 C 416 294.225, 415.775 294, 415.500 294 C 415.225 294, 415 294.225, 415 294.500 M 414 296.500 C 414 296.775, 414.225 297, 414.500 297 C 414.775 297, 415 296.775, 415 296.500 C 415 296.225, 414.775 296, 414.500 296 C 414.225 296, 414 296.225, 414 296.500 M 423 315.500 C 423 315.775, 423.225 316, 423.500 316 C 423.775 316, 424 315.775, 424 315.500 C 424 315.225, 423.775 315, 423.500 315 C 423.225 315, 423 315.225, 423 315.500 M 418 324 C 418 324.733, 418.300 325.033, 418.667 324.667 C 419.033 324.300, 419.033 323.700, 418.667 323.333 C 418.300 322.967, 418 323.267, 418 324 M 493 357.500 C 493 357.775, 493.225 358, 493.500 358 C 493.775 358, 494 357.775, 494 357.500 C 494 357.225, 493.775 357, 493.500 357 C 493.225 357, 493 357.225, 493 357.500 M 513 357.500 C 513 357.775, 513.225 358, 513.500 358 C 513.775 358, 514 357.775, 514 357.500 C 514 357.225, 513.775 357, 513.500 357 C 513.225 357, 513 357.225, 513 357.500 M 504.405 371.155 C 503.962 371.870, 504.130 372.038, 504.845 371.595 C 505.480 371.203, 506 370.684, 506 370.441 C 506 369.607, 505.117 370.002, 504.405 371.155 M 503 373.500 C 503 373.775, 503.225 374, 503.500 374 C 503.775 374, 504 373.775, 504 373.500 C 504 373.225, 503.775 373, 503.500 373 C 503.225 373, 503 373.225, 503 373.500 M 529.819 386.871 C 523.572 392.452, 524.719 394.142, 558.570 429.247 C 575.764 447.077, 577.935 448.512, 583.951 446.020 C 593.801 441.940, 590.795 436.410, 564.202 409.683 C 536.632 381.975, 535.867 381.467, 529.819 386.871 M 160.229 392.096 C 155.679 395.993, 151.246 400.557, 150.378 402.237 C 149.430 404.068, 148.525 404.849, 148.116 404.187 C 147.388 403.009, 142 409.016, 142 411.006 C 142 411.617, 141.599 411.870, 141.109 411.568 C 139.862 410.797, 120.429 430.550, 118.971 434.071 C 115.291 442.955, 124.714 450.251, 132.118 444.250 C 139.865 437.972, 177.906 398.222, 178.524 395.760 C 181.446 384.118, 171.796 382.186, 160.229 392.096 M 379.750 641.732 C 382.087 641.943, 385.913 641.943, 388.250 641.732 C 390.587 641.522, 388.675 641.349, 384 641.349 C 379.325 641.349, 377.413 641.522, 379.750 641.732" stroke="none" fill="#e8eeea" fill-rule="evenodd"/><path d="M 348.198 5.673 C 341.964 8.745, 341.661 10.368, 341.576 41.177 L 341.500 68.853 344.425 71.914 C 349.697 77.430, 357.334 76.958, 362.520 70.794 L 365 67.847 364.978 41.673 C 364.953 11.594, 364.271 8.265, 357.564 5.462 C 353.192 3.636, 352.291 3.656, 348.198 5.673 M 346.646 9.452 L 344 11.905 344 40 L 344 68.095 346.750 70.645 C 350.118 73.768, 355.839 73.439, 359.598 69.908 L 362 67.651 362 40.249 L 362 12.846 359.077 9.923 C 355.301 6.147, 350.412 5.962, 346.646 9.452 M 540.220 69.986 C 519.749 79.278, 484.286 118.033, 488.015 127.037 C 493.524 140.336, 499.285 138.522, 523.065 116 C 552.464 88.156, 554.777 85.704, 555.557 81.548 C 557.352 71.982, 549.261 65.883, 540.220 69.986 M 153.844 71.255 C 145.752 78.095, 147.838 84.888, 162.210 98.498 C 166.219 102.295, 176.057 111.794, 184.070 119.607 C 202.711 137.780, 210.207 140.235, 215.544 129.915 C 219.686 121.904, 218.042 119.251, 194.785 96.407 C 165.475 67.618, 161.231 65.011, 153.844 71.255 M 155.817 72.718 C 147.399 77.939, 149.010 81.373, 168.817 100.435 C 177.992 109.265, 188.412 119.570, 191.971 123.334 C 201.348 133.250, 206.046 135.112, 211.288 130.988 C 218.633 125.210, 216.479 121.456, 192.781 98.732 C 161.736 68.964, 161.798 69.007, 155.817 72.718 M 539 73.118 C 526.058 80.921, 490 117.441, 490 122.746 C 490 136.129, 498.178 135.083, 514 119.676 C 520.325 113.516, 530.900 103.595, 537.500 97.628 C 544.100 91.661, 550.285 85.591, 551.245 84.139 C 557.026 75.394, 548.281 67.522, 539 73.118 M 323.500 97.941 C 171.237 125.001, 115.218 299.122, 224.046 407.066 C 241.305 424.185, 247.699 432.745, 251.714 444.105 L 254.327 451.500 254.919 496 C 255.630 549.400, 256.230 551.909, 270.112 559.464 L 275.464 562.377 353.431 562.647 C 460.816 563.019, 451.206 569.512, 452.071 496 C 452.490 460.442, 452.987 446.433, 453.934 443.500 C 457.418 432.716, 466.232 420.223, 476.595 411.381 C 523.153 371.657, 547.217 303.382, 535.414 244.500 C 516.545 150.365, 416.775 81.364, 323.500 97.941 M 339 122.054 C 300.782 126.214, 269.571 140.998, 241.170 168.394 C 174.868 232.351, 176.879 328.748, 245.851 392.826 C 272.178 417.285, 279.190 432.526, 281.125 469.500 C 282.535 496.448, 280.891 494.115, 298.241 493.778 L 312.500 493.500 312.803 461.500 C 313.399 398.477, 303.102 358.239, 274.688 312.561 C 234.008 247.164, 283.062 200.144, 337.088 252.750 C 354.698 269.897, 351.171 269.852, 368.347 253.149 C 419.961 202.955, 471.379 245.890, 433.442 307.506 C 403.125 356.748, 394.681 388.229, 393.335 457.034 C 392.539 497.710, 390.990 494.005, 408.785 493.985 C 427.042 493.964, 425.389 496.403, 425.513 469.315 C 425.681 432.327, 431.413 419.076, 458.959 392 C 501.075 350.601, 517.149 308.682, 510.462 257.689 C 500.078 178.512, 417.858 113.472, 339 122.054 M 312.303 148.039 C 306.905 149.118, 286.198 158.952, 280.100 163.332 C 277.516 165.189, 271.512 168.609, 266.760 170.930 C 245.639 181.249, 233.857 200.092, 242.882 209.118 C 249.778 216.013, 255.523 214.603, 267.409 203.095 C 284.172 186.864, 300.731 176.437, 316.812 171.987 C 332.281 167.706, 337.169 152.266, 324.206 148.628 C 320.011 147.451, 316.192 147.262, 312.303 148.039 M 313.391 151.058 C 308.036 152.087, 283.554 163.509, 278.838 167.179 C 276.824 168.746, 273.474 170.739, 271.394 171.609 C 260.834 176.021, 247.304 188.537, 243.021 197.854 L 240.560 203.209 244.393 206.721 C 250.563 212.375, 253.871 211.354, 265.349 200.249 C 270.423 195.341, 275.907 190.464, 277.536 189.413 C 279.166 188.361, 283.874 185.072, 287.999 182.103 C 297.172 175.504, 307.077 170.841, 316.953 168.472 C 324.411 166.684, 329 163.689, 329 160.611 C 329 153.519, 322.211 149.364, 313.391 151.058 M 225.500 223.954 C 216.510 227.673, 210.654 248.207, 216.729 254.710 C 225.561 264.165, 239.522 254.625, 242.481 237.115 C 243.964 228.332, 233.856 220.498, 225.500 223.954 M 223.239 229.381 C 220.302 232.726, 217.877 238.796, 216.468 246.329 C 215.107 253.609, 225.314 258.777, 230.604 253.487 C 233.608 250.483, 238.868 239.591, 239.654 234.747 C 240.878 227.202, 228.659 223.207, 223.239 229.381 M 196 228 C 196 228.733, 196.300 229.033, 196.667 228.667 C 197.033 228.300, 197.033 227.700, 196.667 227.333 C 196.300 226.967, 196 227.267, 196 228 M 195 231 C 195 231.733, 195.300 232.033, 195.667 231.667 C 196.033 231.300, 196.033 230.700, 195.667 230.333 C 195.300 229.967, 195 230.267, 195 231 M 194 234 C 194 234.733, 194.300 235.033, 194.667 234.667 C 195.033 234.300, 195.033 233.700, 194.667 233.333 C 194.300 232.967, 194 233.267, 194 234 M 193 238 C 193 238.733, 193.300 239.033, 193.667 238.667 C 194.033 238.300, 194.033 237.700, 193.667 237.333 C 193.300 236.967, 193 237.267, 193 238 M 192 241.500 C 192 241.775, 192.225 242, 192.500 242 C 192.775 242, 193 241.775, 193 241.500 C 193 241.225, 192.775 241, 192.500 241 C 192.225 241, 192 241.225, 192 241.500 M 192 243.500 C 192 243.775, 192.225 244, 192.500 244 C 192.775 244, 193 243.775, 193 243.500 C 193 243.225, 192.775 243, 192.500 243 C 192.225 243, 192 243.225, 192 243.500 M 591.500 249.948 C 575.921 250.322, 567.799 250.901, 566.328 251.744 C 558.532 256.207, 557.944 265.925, 565.146 271.271 C 568.550 273.798, 628.604 274.028, 634.565 271.537 C 650.153 265.024, 639.544 248.525, 620.201 249.198 C 617.065 249.308, 604.150 249.645, 591.500 249.948 M 76.914 250.956 C 64.976 254.573, 63.225 269.279, 74.296 272.933 C 78.493 274.318, 138.166 273.517, 140.929 272.038 C 149.293 267.562, 148.439 255.171, 139.510 251.440 C 135.699 249.847, 81.942 249.432, 76.914 250.956 M 83.326 252.872 C 70.744 253.733, 65.651 258.557, 69.489 265.979 C 72.033 270.899, 72.786 271, 106.747 271 L 138.626 271 141.313 268.195 C 150.730 258.366, 143.272 253.003, 120.173 252.991 C 110.453 252.987, 100.250 252.817, 97.500 252.613 C 94.750 252.410, 88.372 252.527, 83.326 252.872 M 572.646 252.917 C 561.685 254.084, 558.100 265.237, 567.131 270.070 C 571.142 272.217, 632.509 270.174, 635.536 267.793 C 639.201 264.910, 638.985 258.831, 635.077 254.923 L 632.154 252 605.327 252.147 C 590.572 252.228, 575.866 252.575, 572.646 252.917 M 288.659 258.054 C 280.923 264.139, 282.670 272.498, 297.125 298.555 C 329.272 356.507, 337.916 388.739, 338.732 453.696 C 339.093 482.381, 339.503 491.304, 340.523 492.696 C 341.750 494.368, 363.548 495.015, 366.074 493.454 C 366.426 493.237, 366.970 476.283, 367.284 455.780 C 367.759 424.757, 368.197 416.479, 369.893 406.458 C 377.199 363.271, 384.864 340.818, 404.015 306.500 C 421.289 275.544, 421.898 274.047, 420.026 267.096 C 418.571 261.694, 415.291 258.333, 410.618 257.456 C 404.059 256.226, 402.075 257.472, 389 271.038 C 382.125 278.171, 374.250 285.473, 371.500 287.266 C 364.791 291.638, 364.925 290.019, 365.240 362.663 L 365.500 422.826 363.103 425.384 C 358.636 430.151, 348.622 431.778, 344.837 428.352 C 339.897 423.882, 340 425.421, 340 356.092 L 340 291.085 333.250 285.691 C 329.538 282.724, 322.347 275.948, 317.271 270.633 C 302.944 255.630, 295.757 252.470, 288.659 258.054 M 210.923 272.923 C 204.221 279.625, 209.785 292, 219.500 292 C 226.503 292, 231.439 285.897, 229.918 279.118 C 227.960 270.393, 217.021 266.825, 210.923 272.923 M 212.457 274.452 C 207.288 279.621, 211.777 289, 219.421 289 C 230.849 289, 230.761 273.851, 219.324 272.317 C 215.725 271.834, 214.782 272.127, 212.457 274.452 M 415 294.500 C 415 294.775, 415.225 295, 415.500 295 C 415.775 295, 416 294.775, 416 294.500 C 416 294.225, 415.775 294, 415.500 294 C 415.225 294, 415 294.225, 415 294.500 M 414 296.500 C 414 296.775, 414.225 297, 414.500 297 C 414.775 297, 415 296.775, 415 296.500 C 415 296.225, 414.775 296, 414.500 296 C 414.225 296, 414 296.225, 414 296.500 M 423 315.500 C 423 315.775, 423.225 316, 423.500 316 C 423.775 316, 424 315.775, 424 315.500 C 424 315.225, 423.775 315, 423.500 315 C 423.225 315, 423 315.225, 423 315.500 M 418 324 C 418 324.733, 418.300 325.033, 418.667 324.667 C 419.033 324.300, 419.033 323.700, 418.667 323.333 C 418.300 322.967, 418 323.267, 418 324 M 493 357.500 C 493 357.775, 493.225 358, 493.500 358 C 493.775 358, 494 357.775, 494 357.500 C 494 357.225, 493.775 357, 493.500 357 C 493.225 357, 493 357.225, 493 357.500 M 513 357.500 C 513 357.775, 513.225 358, 513.500 358 C 513.775 358, 514 357.775, 514 357.500 C 514 357.225, 513.775 357, 513.500 357 C 513.225 357, 513 357.225, 513 357.500 M 504.405 371.155 C 503.962 371.870, 504.130 372.038, 504.845 371.595 C 505.480 371.203, 506 370.684, 506 370.441 C 506 369.607, 505.117 370.002, 504.405 371.155 M 503 373.500 C 503 373.775, 503.225 374, 503.500 374 C 503.775 374, 504 373.775, 504 373.500 C 504 373.225, 503.775 373, 503.500 373 C 503.225 373, 503 373.225, 503 373.500 M 167.136 383.563 C 159.855 386.672, 119.950 425.845, 116.690 433.084 C 112.165 443.129, 124.011 453.357, 133.089 447.243 C 136.150 445.182, 175.479 405.828, 178.747 401.556 C 185.696 392.474, 177.178 379.275, 167.136 383.563 M 528.766 384.919 C 520.816 392.023, 523.109 396.240, 550.601 425.082 C 576.078 451.812, 580.101 454.053, 588.150 446.003 C 595.587 438.567, 592.828 433.668, 566.383 407.346 C 539.035 380.125, 536.092 378.371, 528.766 384.919 M 529.819 386.871 C 523.572 392.452, 524.719 394.142, 558.570 429.247 C 575.764 447.077, 577.935 448.512, 583.951 446.020 C 593.801 441.940, 590.795 436.410, 564.202 409.683 C 536.632 381.975, 535.867 381.467, 529.819 386.871 M 160.229 392.096 C 155.679 395.993, 151.246 400.557, 150.378 402.237 C 149.430 404.068, 148.525 404.849, 148.116 404.187 C 147.388 403.009, 142 409.016, 142 411.006 C 142 411.617, 141.599 411.870, 141.109 411.568 C 139.862 410.797, 120.429 430.550, 118.971 434.071 C 115.291 442.955, 124.714 450.251, 132.118 444.250 C 139.865 437.972, 177.906 398.222, 178.524 395.760 C 181.446 384.118, 171.796 382.186, 160.229 392.096 M 283.750 521.080 C 281.149 522.595, 281.318 531.318, 284 534 C 286.774 536.774, 421.671 537.186, 424.429 534.429 C 426.970 531.887, 426.546 523.496, 423.777 521.557 C 421.076 519.665, 286.964 519.208, 283.750 521.080 M 288.500 579.007 C 247.078 580.505, 240.011 625.846, 278.581 642.648 L 284.947 645.422 288.431 656.461 C 307.886 718.116, 402.913 716.586, 418.099 654.373 C 419.881 647.070, 420.538 646.280, 426.247 644.572 C 455.641 635.777, 461.331 587.491, 433.839 580.151 C 429.232 578.922, 315.591 578.026, 288.500 579.007 M 282.643 606.690 C 280.263 609.070, 285.137 616.324, 290.671 618.636 C 293.304 619.736, 305.417 620, 353.256 620 L 412.576 620 416.964 617.750 C 421.372 615.490, 425.335 610.037, 424.380 607.547 C 423.867 606.210, 283.969 605.364, 282.643 606.690 M 379.750 641.732 C 382.087 641.943, 385.913 641.943, 388.250 641.732 C 390.587 641.522, 388.675 641.349, 384 641.349 C 379.325 641.349, 377.413 641.522, 379.750 641.732 M 345.213 645.733 C 311.425 646.064, 312.711 645.755, 314.888 653.021 C 322.612 678.799, 370.735 682.040, 387.547 657.913 C 396.246 645.429, 395.588 645.239, 345.213 645.733" stroke="none" fill="#fb686f" fill-rule="evenodd"/></svg>